<svg width="174" height="174" viewBox="0 0 174 174" fill="none" xmlns="http://www.w3.org/2000/svg">
<path d="M86.7999 167.5C131.48 167.5 167.7 131.28 167.7 86.6C167.7 41.9202 131.48 5.70001 86.7999 5.70001C42.1201 5.70001 5.8999 41.9202 5.8999 86.6C5.8999 131.28 42.1201 167.5 86.7999 167.5Z" fill="#4168CA"/>
<path d="M133.2 124.4L124.4 133.4H133.2V124.4Z" fill="#8DA4DF"/>
<path d="M133.2 94.3L95 133.4H104.6L133.2 104.1V94.3Z" fill="#8DA4DF"/>
<path d="M133.2 64.2L65.6997 133.4H75.1997L133.2 74V64.2Z" fill="#8DA4DF"/>
<path d="M133.2 39.8H127.7L40.3999 129.2V133.4H45.7999L133.2 43.9V39.8Z" fill="#8DA4DF"/>
<path d="M98.2999 39.8L40.3999 99.1V108.9L107.9 39.8H98.2999Z" fill="#8DA4DF"/>
<path d="M68.9999 39.8L40.3999 69V78.8L78.4999 39.8H68.9999Z" fill="#8DA4DF"/>
<path d="M40.3999 39.8V48.7L49.0999 39.8H40.3999Z" fill="#8DA4DF"/>
<path d="M60.8998 85.6C60.8998 85.3 60.8998 85.1 60.9998 84.8V72.2C60.9998 69.9 62.9998 68.1 65.4998 68.1C67.9998 68.1 69.9998 69.9 69.9998 72.2V85.6H71.6998V83.8V63.4V62.4C71.6998 60.1 73.6998 58.3 76.1998 58.3C78.6998 58.3 80.6998 60.1 80.6998 62.4V63.4V83.8V85.6H82.4998V55.8C82.4998 53.2 84.4998 51.1 86.9998 51.1C89.4998 51.1 91.4998 53.2 91.4998 55.8V85.6H93.3998V60.9C93.3998 58.3 95.3998 56.2 97.8998 56.2C100.4 56.2 102.4 58.3 102.4 60.9V91H102V100.8H103.7V88C103.7 85.4 105.7 83.3 108.2 83.3C110.7 83.3 112.7 85.4 112.7 88V100.8V104.5C112.7 114.2 105.1 122.1 95.7998 122.1H77.6998C68.3998 122.1 60.7998 114.2 60.7998 104.5L60.8998 85.6Z" fill="white"/>
<path d="M95.7998 123.6H77.6998C67.4998 123.6 59.2998 115 59.2998 104.4V85.6C59.2998 85.3 59.2998 85 59.3998 84.7V72.2C59.3998 69.1 62.0998 66.5 65.3998 66.5C67.1998 66.5 68.8998 67.3 69.9998 68.5V62.4C69.9998 59.3 72.6998 56.7 75.9998 56.7C77.8998 56.7 79.5998 57.5 80.6998 58.9V55.7C80.6998 52.3 83.3998 49.4 86.6998 49.4C89.9998 49.4 92.6998 52.2 92.6998 55.7V57.1C93.7998 55.6 95.4998 54.6 97.4998 54.6C100.8 54.6 103.5 57.4 103.5 60.8V83.8C104.6 82.5 106.2 81.7 108.1 81.7C111.4 81.7 114.1 84.5 114.1 88V104.5C114.3 115 106 123.6 95.7998 123.6ZM65.3998 69.7C63.7998 69.7 62.4998 70.8 62.4998 72.2V85.1C62.4998 85.3 62.4998 85.4 62.4998 85.6V104.4C62.4998 113.3 69.3998 120.5 77.7998 120.5H95.8998C104.3 120.5 111.2 113.3 111.2 104.4V88C111.2 86.3 109.9 84.9 108.3 84.9C106.7 84.9 105.4 86.3 105.4 88V102.4H100.5V89.4H100.6V60.9C100.6 59.2 99.2998 57.8 97.6998 57.8C96.0998 57.8 94.7998 59.2 94.7998 60.9V87.2H89.7998V55.8C89.7998 54.1 88.4998 52.7 86.8998 52.7C85.2998 52.7 83.9998 54.1 83.9998 55.8V87.2H78.9998V62.4C78.9998 61 77.6998 59.9 76.0998 59.9C74.4998 59.9 73.1998 61 73.1998 62.4V87.1H68.3998V72.1C68.2998 70.8 66.9998 69.7 65.3998 69.7Z" fill="#4168CA"/>
</svg>
