<svg width="13" height="17" viewBox="0 0 13 17" fill="none" xmlns="http://www.w3.org/2000/svg">
<path fill-rule="evenodd" clip-rule="evenodd" d="M9.13999 4.41429V6.71468H9.14012H10.7251V4.41429C10.7251 1.98027 8.73217 0 6.28259 0V1.57505C7.85826 1.57505 9.13999 2.84859 9.13999 4.41429Z" fill="#777F95"/>
<path fill-rule="evenodd" clip-rule="evenodd" d="M3.42527 6.71472V4.41433C3.42527 2.84868 4.70704 1.57509 6.28262 1.57509V0C3.83308 0 1.84015 1.98027 1.84015 4.41429V6.71468H1.84027H3.42527V6.71472Z" fill="#777F95"/>
<path d="M6.28261 17.0001C9.7524 17.0001 12.5652 14.2844 12.5652 10.9344C12.5652 7.58437 9.7524 4.86865 6.28261 4.86865C2.81282 4.86865 0 7.58437 0 10.9344C0 14.2844 2.81282 17.0001 6.28261 17.0001Z" fill="#9DA3B3"/>
<path d="M6.30815 12.8498C5.76256 12.8498 5.31616 12.4188 5.31616 11.892V9.97654C5.31616 9.44978 5.76256 9.0188 6.30815 9.0188C6.85375 9.0188 7.30014 9.44978 7.30014 9.97654V11.892C7.30014 12.4188 6.85375 12.8498 6.30815 12.8498Z" fill="#C3C7D1"/>
</svg>
