<svg width="26" height="35" viewBox="0 0 26 35" fill="none" xmlns="http://www.w3.org/2000/svg">
<path fill-rule="evenodd" clip-rule="evenodd" d="M3.56184 32.6245C3.56184 32.6245 4.08318 35 6.76662 35H18.9C21.5833 35 22.1046 32.6245 22.1046 32.6245L24.5 9.33339H1.16664L3.56184 32.6245ZM17.5 12.8334C17.5 12.189 18.0222 11.6668 18.6666 11.6668C19.311 11.6668 19.8334 12.189 19.8334 12.8334L18.6666 30.3334C18.6666 30.9778 18.1443 31.5001 17.5 31.5001C16.8557 31.5001 16.3334 30.9777 16.3334 30.3334L17.5 12.8334ZM11.6667 12.8334C11.6667 12.189 12.189 11.6668 12.8333 11.6668C13.4777 11.6668 13.9999 12.189 13.9999 12.8334V30.3334C13.9999 30.9778 13.4777 31.5001 12.8333 31.5001C12.1889 31.5001 11.6667 30.9777 11.6667 30.3334V12.8334ZM6.99997 11.6667C7.64437 11.6667 8.16661 12.1889 8.16661 12.8333L9.33338 30.3333C9.33338 30.9777 8.81101 31.4999 8.16661 31.4999C7.52235 31.4999 6.99997 30.9776 6.99997 30.3333L5.83333 12.8334C5.83333 12.189 6.35571 11.6667 6.99997 11.6667ZM23.7999 4.66852H18.6666V2.33341C18.6666 0.56344 18.0942 0 16.3334 0H9.33325C7.71816 0 6.99997 0.782323 6.99997 2.33341V4.66865H1.8667C0.834991 4.66865 0 5.45175 0 6.41946C0 7.38729 0.834991 8.17039 1.8667 8.17039H23.7999C24.8316 8.17039 25.6666 7.38729 25.6666 6.41946C25.6666 5.45175 24.8316 4.66852 23.7999 4.66852ZM16.3334 4.66852H9.33338L9.33352 2.33328H16.3335L16.3334 4.66852Z" fill="#111111"/>
</svg>
