<svg width="174" height="174" viewBox="0 0 174 174" fill="none" xmlns="http://www.w3.org/2000/svg">
<path d="M86.7999 168.7C131.48 168.7 167.7 132.48 167.7 87.8C167.7 43.1202 131.48 6.90002 86.7999 6.90002C42.1201 6.90002 5.8999 43.1202 5.8999 87.8C5.8999 132.48 42.1201 168.7 86.7999 168.7Z" fill="#4168CA"/>
<path d="M61.1001 86.9C61.1001 86.6 61.1001 86.4 61.2001 86.1V73.5C61.2001 71.3 63.2001 69.4 65.6001 69.4C68.0001 69.4 70.0001 71.2 70.0001 73.5V86.8H71.7001V85V64.9V63.9C71.7001 61.7 73.7001 59.8 76.1001 59.8C78.5001 59.8 80.5001 61.6 80.5001 63.9V64.9V85.1V86.9H82.3001V57.3C82.3001 54.7 84.3001 52.7 86.7001 52.7C89.2001 52.7 91.1001 54.8 91.1001 57.3V86.9H93.0001V62.3C93.0001 59.7 95.0001 57.7 97.4001 57.7C99.8001 57.7 101.8 59.8 101.8 62.3V92.2H101.7V101.9H103.4V89.2C103.4 86.6 105.4 84.6 107.8 84.6C110.3 84.6 112.2 86.7 112.2 89.2V101.9V105.5C112.2 115.2 104.7 123 95.5001 123H77.8001C68.6001 123 61.1001 115.1 61.1001 105.5V86.9Z" fill="white"/>
<path d="M95.7001 125H77.8001C67.5001 125 59.1001 116.3 59.1001 105.6V86.9C59.1001 86.6 59.1001 86.3 59.2001 86V73.5C59.2001 70.2 62.1001 67.5 65.6001 67.5C67.2001 67.5 68.6001 68.1 69.8001 69V63.9C69.8001 60.6 72.7001 57.9 76.2001 57.9C77.9001 57.9 79.4001 58.5 80.5001 59.5V57.3C80.5001 53.7 83.4001 50.7 86.9001 50.7C90.4001 50.7 93.3001 53.7 93.3001 57.3V57.6C94.4001 56.5 96.0001 55.8 97.7001 55.8C101.2 55.8 104.1 58.7 104.1 62.4V84.3C105.2 83.3 106.7 82.7 108.2 82.7C111.7 82.7 114.6 85.7 114.6 89.3V105.6C114.4 116.3 106 125 95.7001 125ZM65.6001 71.4C64.2001 71.4 63.1001 72.3 63.1001 73.5V86.3C63.1001 86.5 63.1001 86.6 63.1001 86.8V105.5C63.1001 114.1 69.7001 121.1 77.9001 121.1H95.8001C104 121.1 110.6 114.1 110.6 105.5V89.2C110.6 87.7 109.5 86.5 108.1 86.5C106.7 86.5 105.6 87.7 105.6 89.2V103.8H100V90.3H100.1V62.3C100.1 60.8 99.0001 59.6 97.6001 59.6C96.2001 59.6 95.1001 60.8 95.1001 62.3V88.8H89.3001V57.3C89.3001 55.8 88.2001 54.6 86.8001 54.6C85.4001 54.6 84.3001 55.8 84.3001 57.3V88.8H78.6001V63.9C78.6001 62.7 77.5001 61.8 76.1001 61.8C74.7001 61.8 73.6001 62.7 73.6001 63.9V88.8H68.0001V73.5C68.0001 72.4 66.9001 71.4 65.6001 71.4Z" fill="#4168CA"/>
</svg>
