<svg width="163" height="139" viewBox="0 0 163 139" fill="none" xmlns="http://www.w3.org/2000/svg">
<path d="M161.55 123.805L90.0428 4.85091C88.2649 1.85476 84.9936 0 81.5089 0C78.0242 0 74.7529 1.85476 72.9394 4.85091L1.43238 123.805C-0.416629 126.908 -0.487746 130.761 1.29015 133.899C3.06805 137.038 6.37494 139 10.0019 139H153.016C156.607 139 159.95 137.038 161.728 133.899C163.47 130.761 163.434 126.908 161.55 123.805Z" fill="#FCCC6F"/>
<path d="M141.779 125.945H21.3798C20.2419 125.945 19.1752 125.339 18.6063 124.34C18.0373 123.341 18.0373 122.129 18.6063 121.13L78.6992 14.9093C79.2681 13.9106 80.3349 13.2686 81.4727 13.2686C82.6106 13.2686 83.6773 13.8749 84.2462 14.9093L144.517 121.13C145.086 122.129 145.086 123.341 144.517 124.34C143.984 125.339 142.917 125.945 141.779 125.945ZM26.8913 119.525H136.268L81.5083 23.0417L26.8913 119.525Z" fill="#FFE2AD"/>
<path d="M88.9396 108.111C88.9396 112.07 85.5972 115.53 81.6503 115.53C77.4189 115.53 74.2542 112.07 74.2542 108.111C74.2542 104.081 77.4189 100.692 81.6503 100.692C85.5972 100.692 88.9396 104.045 88.9396 108.111ZM87.1262 89.8489C87.1262 92.845 83.8549 94.0934 81.5791 94.0934C78.5212 94.0934 75.9254 92.845 75.9254 89.8489C75.9254 78.3993 74.5742 61.9562 74.5742 50.5423C74.5742 46.7971 77.6322 44.6926 81.5791 44.6926C85.3127 44.6926 88.4774 46.7971 88.4774 50.5423C88.4774 61.9562 87.1262 78.3993 87.1262 89.8489Z" fill="white"/>
</svg>
