<svg width="30" height="30" viewBox="0 0 30 30" fill="none" xmlns="http://www.w3.org/2000/svg">
<path d="M18.3178 15L29.3129 4.0049C30.229 3.08886 30.229 1.60331 29.3129 0.687134C28.3968 -0.228907 26.9113 -0.228907 25.9951 0.687134L15 11.6822L4.00493 0.687134C3.08888 -0.229045 1.6036 -0.229045 0.687141 0.687134C-0.229046 1.60317 -0.229046 3.08872 0.687141 4.0049L11.6822 15L0.687141 25.9951C-0.229046 26.9111 -0.229046 28.3967 0.687141 29.3129C1.60333 30.229 3.08875 30.229 4.00493 29.3129L15 18.3178L25.9951 29.3129C26.911 30.2289 28.3964 30.2292 29.3129 29.3129C30.229 28.3968 30.229 26.9113 29.3129 25.9951L18.3178 15Z" fill="#575E71"/>
</svg>
