<svg width="189" height="175" viewBox="0 0 189 175" fill="none" xmlns="http://www.w3.org/2000/svg">
<path fill-rule="evenodd" clip-rule="evenodd" d="M122.02 0L57.8633 86.7013L124.843 136.357L189 49.655L122.021 0H122.02Z" fill="#EDEDED"/>
<path fill-rule="evenodd" clip-rule="evenodd" d="M127.78 60.9662L129.145 61.5046L124.632 79.59L123.267 79.0516L127.78 60.9662ZM151.209 68.4507L150.698 69.8279L129.816 60.7043L130.327 59.3272L151.209 68.4507ZM141.744 41.1552L142.936 41.9847L132.556 56.7021L131.364 55.8728L141.744 41.1552ZM129.093 58.8398L127.9 59.7191L117.049 45.2925L118.242 44.4133L129.093 58.8398Z" fill="#4A5E81"/>
<path fill-rule="evenodd" clip-rule="evenodd" d="M134.894 51.9898C139.247 55.1695 140.194 61.2538 137.007 65.5796C133.821 69.9053 127.709 70.8342 123.355 67.6546C119.001 64.475 118.055 58.3908 121.241 54.0651C124.428 49.7393 130.54 48.8102 134.894 51.9898Z" fill="#5A478F"/>
<path fill-rule="evenodd" clip-rule="evenodd" d="M127.357 76.7441C130.521 79.0547 131.209 83.4759 128.893 86.6193C126.578 89.7626 122.136 90.4377 118.972 88.1271C115.809 85.8166 115.121 81.3955 117.436 78.2521C119.752 75.1087 124.194 74.4336 127.357 76.7441Z" fill="#F47E6C"/>
<path fill-rule="evenodd" clip-rule="evenodd" d="M154.593 65.1685C156.958 66.8958 157.472 70.201 155.741 72.5509C154.01 74.9009 150.69 75.4056 148.324 73.6782C145.959 71.951 145.445 68.6458 147.176 66.2959C148.907 63.946 152.228 63.4412 154.593 65.1685Z" fill="#73C8CC"/>
<mask id="mask0_15257_151111" style="mask-type:alpha" maskUnits="userSpaceOnUse" x="105" y="32" width="21" height="21">
<path fill-rule="evenodd" clip-rule="evenodd" d="M105.864 43.7929L114.128 32.5735L125.42 40.8203L117.156 52.0397L105.864 43.7929V43.7929Z" fill="white"/>
</mask>
<g mask="url(#mask0_15257_151111)">
<path fill-rule="evenodd" clip-rule="evenodd" d="M119.774 36.697C122.892 38.9743 123.57 43.3319 121.288 46.43C119.006 49.5282 114.628 50.1937 111.51 47.9164C108.391 45.639 107.714 41.2813 109.996 38.1831C112.278 35.0851 116.656 34.4196 119.774 36.697Z" fill="#42C7BB"/>
</g>
<path fill-rule="evenodd" clip-rule="evenodd" d="M146.938 35.071C148.761 36.4021 149.157 38.9494 147.823 40.7604C146.489 42.5714 143.93 42.9602 142.107 41.6291C140.285 40.298 139.888 37.7507 141.222 35.9398C142.556 34.1287 145.115 33.7399 146.938 35.071Z" fill="#FCCB6F"/>
<path fill-rule="evenodd" clip-rule="evenodd" d="M0 24.4117L15.9502 131.117L98.3837 118.772L82.4334 12.0664L0 24.4117Z" fill="#F5F5F5"/>
<path d="M57.7095 89.5257L52.284 90.3599C51.6811 90.4526 51.1287 90.0563 51.037 89.4653L47.2456 65.0196C47.154 64.4286 47.5606 63.8848 48.1634 63.7921L53.5889 62.9578C54.1917 62.8651 54.7442 63.2615 54.8358 63.8525L58.6272 88.2981C58.7168 88.8757 58.3123 89.433 57.7095 89.5257Z" fill="#FCCB6F"/>
<path d="M57.7103 89.5267L52.2848 90.361C51.682 90.4537 51.1295 90.0573 51.0379 89.4663L48.2339 71.3873C48.1422 70.7963 48.5489 70.2524 49.1517 70.1597L54.5772 69.3255C55.18 69.2328 55.7325 69.6291 55.8241 70.2201L58.626 88.2857C58.7177 88.8767 58.3131 89.434 57.7103 89.5267Z" fill="#F5B33C"/>
<path d="M68.5589 87.8577L63.1334 88.692C62.5305 88.7847 61.9781 88.3883 61.8864 87.7973L55.1265 44.2115C55.0348 43.6205 55.4414 43.0767 56.0443 42.984L61.4698 42.1497C62.0726 42.057 62.625 42.4534 62.7167 43.0443L69.4766 86.6302C69.5662 87.2077 69.148 87.7671 68.5589 87.8577Z" fill="#24AB9F"/>
<path d="M68.5593 87.8566L63.1338 88.6909C62.531 88.7836 61.9786 88.3872 61.8869 87.7962L57.106 56.9705C57.0143 56.3795 57.4209 55.8357 58.0238 55.743L63.4493 54.9087C64.0521 54.816 64.6045 55.2124 64.6962 55.8034L69.4771 86.6291C69.5667 87.2067 69.1485 87.766 68.5593 87.8566Z" fill="#109488"/>
<path d="M36.0228 92.8621L30.611 93.6942C30.0081 93.7869 29.4557 93.3906 29.3641 92.7996L26.5601 74.7205C26.4684 74.1295 26.875 73.5857 27.4779 73.493L32.9034 72.6587C33.5062 72.566 34.0586 72.9624 34.1503 73.5534L36.9522 91.619C37.0438 92.21 36.6256 92.7694 36.0228 92.8621Z" fill="#73C8CC"/>
<path d="M79.399 86.1936L73.9735 87.0279C73.3706 87.1206 72.8182 86.7242 72.7265 86.1332L64.9771 36.1673C64.8854 35.5763 65.292 35.0325 65.8949 34.9398L71.3204 34.1055C71.9232 34.0128 72.4756 34.4092 72.5673 35.0002L80.3167 84.966C80.4063 85.5436 80.0018 86.1009 79.399 86.1936Z" fill="#5A478F"/>
<path d="M79.3975 86.191L73.972 87.0253C73.3691 87.118 72.8167 86.7216 72.725 86.1306L66.9546 48.9249C66.863 48.3339 67.2696 47.79 67.8724 47.6973L73.2979 46.8631C73.9007 46.7704 74.4532 47.1667 74.5448 47.7577L80.3153 84.9635C80.4048 85.5411 80.0003 86.0983 79.3975 86.191Z" fill="#47337D"/>
<path d="M46.8747 91.1935L41.4493 92.0278C40.8464 92.1205 40.294 91.7242 40.2023 91.1332L35.4214 60.3074C35.3297 59.7164 35.7364 59.1726 36.3392 59.0799L41.7647 58.2456C42.3675 58.1529 42.92 58.5493 43.0116 59.1403L47.7925 89.966C47.8821 90.5436 47.4776 91.1008 46.8747 91.1935Z" fill="#FCA79A"/>
<path d="M46.8716 91.1919L41.4461 92.0262C40.8432 92.1189 40.2908 91.7225 40.1991 91.1315L36.4077 66.6859C36.3161 66.0949 36.7227 65.551 37.3255 65.4583L42.751 64.624C43.3538 64.5313 43.9063 64.9277 43.9979 65.5187L47.7893 89.9644C47.8789 90.5419 47.4744 91.0992 46.8716 91.1919Z" fill="#F47E6C"/>
<path d="M36.0206 92.8617L30.6088 93.6938C30.0059 93.7865 29.4535 93.3902 29.3618 92.7992L27.5474 81.1002C27.4557 80.5092 27.8623 79.9653 28.4652 79.8726L33.8907 79.0384C34.4935 78.9457 35.0459 79.342 35.1376 79.933L36.9521 91.632C37.0416 92.2096 36.6234 92.769 36.0206 92.8617Z" fill="#5BB0B5"/>
<path d="M14.5565 35.0631C14.8627 37.0375 15.171 39.0254 15.4773 40.9999C16.2105 45.7278 16.9438 50.4558 17.6771 55.1837C18.5666 60.9191 19.4582 66.6678 20.3477 72.4032C21.1144 77.346 21.881 82.2889 22.6497 87.2452C23.0226 89.6494 23.3037 92.0953 23.7746 94.4983C23.7808 94.5386 23.785 94.5654 23.7913 94.6057C23.9517 95.64 25.5958 95.3872 25.4353 94.3529C25.1291 92.3785 24.8208 90.3906 24.5146 88.4161C23.7813 83.6882 23.048 78.9602 22.3147 74.2323C21.4252 68.4969 20.5336 62.7482 19.6441 57.0128C18.8775 52.07 18.1109 47.1271 17.3422 42.1708C16.9693 39.7666 16.6881 37.3207 16.2172 34.9177C16.211 34.8774 16.2068 34.8506 16.2006 34.8103C16.0402 33.776 14.3961 34.0288 14.5565 35.0631Z" fill="#4A5E81"/>
<path d="M82.2626 84.926C80.2486 85.2357 78.2208 85.5475 76.2068 85.8572C71.3842 86.5988 66.5615 87.3404 61.7389 88.082C55.8886 88.9816 50.0247 89.8833 44.1745 90.7829C39.1326 91.5581 34.0908 92.3334 29.0352 93.1108C26.5828 93.4879 24.0883 93.7752 21.6368 94.2485C21.5957 94.2548 21.5683 94.259 21.5272 94.2653C20.4722 94.4276 20.7222 96.0394 21.7772 95.8771C23.7912 95.5674 25.8189 95.2556 27.8329 94.9459C32.6556 94.2044 37.4782 93.4628 42.3009 92.7212C48.1511 91.8216 54.015 90.9199 59.8652 90.0203C64.9071 89.245 69.949 88.4698 75.0045 87.6924C77.457 87.3152 79.9514 87.0279 82.4029 86.5547C82.444 86.5484 82.4714 86.5442 82.5125 86.5379C83.5675 86.3756 83.3312 84.7617 82.2626 84.926Z" fill="#4A5E81"/>
<path d="M16.5959 42.7789C15.5136 42.9454 14.4312 43.1118 13.3488 43.2782C12.2939 43.4405 12.5439 45.0523 13.5988 44.89C14.6812 44.7236 15.7635 44.5572 16.8459 44.3907C17.9145 44.2264 17.6646 42.6146 16.5959 42.7789Z" fill="#4A5E81"/>
<path d="M17.5852 49.1586C16.5028 49.325 15.4205 49.4914 14.3381 49.6579C13.2831 49.8201 13.5331 51.4319 14.5881 51.2697C15.6704 51.1032 16.7528 50.9368 17.8351 50.7704C18.9038 50.606 18.6538 48.9942 17.5852 49.1586Z" fill="#4A5E81"/>
<path d="M18.4953 55.2904C17.413 55.4568 16.3306 55.6233 15.2482 55.7897C14.1933 55.9519 14.4433 57.5637 15.4982 57.4015C16.5806 57.2351 17.6629 57.0686 18.7453 56.9022C19.8003 56.74 19.5503 55.1282 18.4953 55.2904Z" fill="#4A5E81"/>
<path d="M19.4807 61.6732C18.3983 61.8397 17.316 62.0061 16.2336 62.1725C15.1786 62.3347 15.4286 63.9465 16.4836 63.7843C17.5659 63.6179 18.6483 63.4515 19.7307 63.285C20.7856 63.1228 20.5356 61.511 19.4807 61.6732Z" fill="#4A5E81"/>
<path d="M20.5383 68.2889C19.4559 68.4554 18.3736 68.6218 17.2912 68.7882C16.2363 68.9505 16.4862 70.5623 17.5412 70.4C18.6236 70.2336 19.7059 70.0672 20.7883 69.9007C21.8432 69.7385 21.5932 68.1267 20.5383 68.2889Z" fill="#4A5E81"/>
<path d="M21.5305 74.6849C20.4481 74.8514 19.3658 75.0178 18.2834 75.1842C17.2284 75.3465 17.4784 76.9583 18.5334 76.796C19.6157 76.6296 20.6981 76.4632 21.7805 76.2967C22.8354 76.1345 22.5854 74.5227 21.5305 74.6849Z" fill="#4A5E81"/>
<path d="M22.424 80.8009C21.3417 80.9673 20.2593 81.1338 19.177 81.3002C18.122 81.4624 18.372 83.0742 19.4269 82.912C20.5093 82.7456 21.5917 82.5791 22.674 82.4127C23.7427 82.2484 23.4927 80.6366 22.424 80.8009Z" fill="#4A5E81"/>
<path d="M23.4152 87.1942C22.3329 87.3606 21.2505 87.5271 20.1682 87.6935C19.1132 87.8557 19.3632 89.4675 20.4182 89.3053C21.5005 89.1389 22.5829 88.9725 23.6652 88.806C24.7339 88.6417 24.4839 87.0299 23.4152 87.1942Z" fill="#4A5E81"/>
<path fill-rule="evenodd" clip-rule="evenodd" d="M119.588 133.604C122.925 136.944 126.262 140.284 129.6 143.624C131.553 145.579 134.584 142.546 132.631 140.591C129.293 137.251 125.956 133.911 122.619 130.571C120.666 128.616 117.634 131.649 119.588 133.604Z" fill="#164B6E"/>
<path fill-rule="evenodd" clip-rule="evenodd" d="M127.423 111.779C127.423 129.868 112.771 144.532 94.6962 144.532C76.6212 144.532 61.9688 129.868 61.9688 111.779C61.9688 93.6891 76.6212 79.0249 94.6962 79.0249C112.771 79.0249 127.423 93.6891 127.423 111.779Z" fill="#2B688F"/>
<path fill-rule="evenodd" clip-rule="evenodd" d="M163.444 163.087L152.082 174.462L125.535 147.894L131.114 142.314L136.901 136.522L163.444 163.087Z" fill="#FCCB6F"/>
<path fill-rule="evenodd" clip-rule="evenodd" d="M123.203 111.784C123.203 119.318 120.255 126.402 114.905 131.733H114.901C112.797 133.827 110.388 135.573 107.745 136.917C103.737 138.959 99.405 139.991 94.8692 139.991C84.1722 139.991 74.4974 134.098 69.626 124.604C68.6009 122.606 67.8279 120.534 67.311 118.391C66.7982 116.247 66.5381 114.04 66.5381 111.784C66.5381 109.178 66.8963 106.592 67.6093 104.088C68.7023 100.244 70.5652 96.7411 73.1514 93.6703C78.5543 87.2546 86.4722 83.5757 94.8692 83.5757C99.4008 83.5757 103.733 84.6118 107.745 86.654C116.292 91.0049 122.008 99.2526 123.034 108.713V108.72C123.147 109.741 123.203 110.774 123.203 111.784Z" fill="white"/>
<path d="M105.355 100.688L89.4594 118.616L83.6429 112.056C82.5718 110.847 80.8343 110.847 79.7632 112.056C78.6909 113.264 78.6909 115.224 79.7632 116.432L87.5201 125.18C88.0557 125.784 88.7588 126.087 89.4606 126.087C90.1624 126.087 90.8643 125.785 91.3998 125.18L109.236 105.065C110.307 103.855 110.307 101.897 109.236 100.688C108.163 99.4797 106.427 99.4797 105.355 100.688Z" fill="#9ACCAB"/>
</svg>
